<svg width="24" height="24" viewBox="0 0 24 24" fill="none" xmlns="http://www.w3.org/2000/svg">
<path fill-rule="evenodd" clip-rule="evenodd" d="M12.1775 8.07837L14.3027 14.2077L17.1495 10.0844L17.8618 15.6512L21.1758 13.3923L18.3186 19.0545L18.1445 19.0389C12.4788 18.5328 11.2733 18.4638 6.21398 19.0383L6.03577 19.0586L3.17651 13.3923L6.49035 15.6512L7.20252 10.0848L10.0517 14.2079L10.8181 11.9978C11.3004 10.6068 11.8124 9.1303 11.9311 8.78846L12.1775 8.07837Z" fill="#A0A5AA"/>
<path d="M2.59622 11.5692L1.65234 11.3307L1.41088 12.2629L2.35475 12.5014L2.59622 11.5692Z" fill="#A0A5AA"/>
<path d="M22.2991 11.3149L21.3688 11.6006L21.658 12.5195L22.5884 12.2338L22.2991 11.3149Z" fill="#A0A5AA"/>
<path d="M6.92842 8.00063L5.62634 7.67163L5.29324 8.95766L6.59531 9.28666L6.92842 8.00063Z" fill="#A0A5AA"/>
<path d="M18.5465 8.72235L17.8745 7.57275L16.7106 8.23647L17.3826 9.38607L18.5465 8.72235Z" fill="#A0A5AA"/>
<path d="M13.1722 6.10774L11.9911 4.94116L10.81 6.10773L11.9911 7.27431L13.1722 6.10774Z" fill="#A0A5AA"/>
</svg>
